<?xml version="1.0" encoding="UTF-8"?>
<svg xmlns="http://www.w3.org/2000/svg" version="1.1" viewBox="0 0 32 32">
  <defs>
    <style>
      .cls-1 {
        fill: #fe5;
      }

      .cls-2 {
        fill: #efd952;
      }

      .cls-3 {
        fill: #fffa55;
      }

      .cls-4 {
        fill: #fff257;
      }

      .cls-5 {
        fill: #ffeb5a;
      }

      .cls-6 {
        fill: #f4e956;
      }

      .cls-7 {
        fill: #e5d74e;
      }

      .cls-8 {
        fill: #fbff57;
      }

      .cls-9 {
        fill: #ffe757;
      }
    </style>
  </defs>
  <!-- Generator: Adobe Illustrator 28.6.0, SVG Export Plug-In . SVG Version: 1.2.0 Build 709)  -->
  <g>
    <g id="Layer_1">
      <polygon class="cls-3" points="10 16 16 0 22 16 10 16"/>
      <polygon class="cls-7" points="16 22 0 16 16 10 16 22"/>
      <polygon class="cls-8" points="22 16 16 32 10 16 22 16"/>
      <polygon class="cls-5" points="16 10 32 16 16 22 16 10"/>
      <polygon class="cls-4" points="11.8 20.2 4.7 4.7 20.2 11.8 11.8 20.2"/>
      <polygon class="cls-6" points="20.2 20.2 4.7 27.3 11.8 11.8 20.2 20.2"/>
      <polygon class="cls-9" points="20.2 11.8 27.3 27.3 11.8 20.2 20.2 11.8"/>
      <polygon class="cls-2" points="11.8 11.8 27.3 4.7 20.2 20.2 11.8 11.8"/>
      <circle class="cls-1" cx="16" cy="16" r="8"/>
    </g>
  </g>
</svg>